<mxfile host="app.diagrams.net" modified="2023-12-06T01:11:00.708Z" agent="Mozilla/5.0 (Windows NT 10.0; Win64; x64) AppleWebKit/537.36 (KHTML, like Gecko) Chrome/119.0.0.0 Safari/537.36 Edg/119.0.0.0" etag="Xb_I-CbIv6EMLp-4GlR-" version="22.1.5" type="device">
  <diagram name="Страница — 1" id="4zZFffurlrl-bASGn2sT">
    <mxGraphModel dx="2017" dy="1053" grid="1" gridSize="10" guides="1" tooltips="1" connect="1" arrows="1" fold="1" page="1" pageScale="1" pageWidth="3300" pageHeight="2339" math="0" shadow="0">
      <root>
        <mxCell id="0" />
        <mxCell id="1" parent="0" />
        <mxCell id="2JCTQVkfjINHfoPqzNRB-141" value="" style="rounded=0;whiteSpace=wrap;html=1;" vertex="1" parent="1">
          <mxGeometry x="120" y="920" width="1410" height="150" as="geometry" />
        </mxCell>
        <mxCell id="2JCTQVkfjINHfoPqzNRB-139" value="" style="rounded=0;whiteSpace=wrap;html=1;" vertex="1" parent="1">
          <mxGeometry x="120" y="770" width="1410" height="160" as="geometry" />
        </mxCell>
        <mxCell id="2JCTQVkfjINHfoPqzNRB-101" style="edgeStyle=orthogonalEdgeStyle;rounded=0;orthogonalLoop=1;jettySize=auto;html=1;exitX=1;exitY=0.25;exitDx=0;exitDy=0;entryX=0;entryY=0.25;entryDx=0;entryDy=0;endArrow=none;endFill=0;" edge="1" parent="1" source="2JCTQVkfjINHfoPqzNRB-1" target="2JCTQVkfjINHfoPqzNRB-2">
          <mxGeometry relative="1" as="geometry" />
        </mxCell>
        <mxCell id="2JCTQVkfjINHfoPqzNRB-1" value="&lt;font style=&quot;font-size: 14px;&quot;&gt;:CookController&lt;/font&gt;" style="rounded=0;whiteSpace=wrap;html=1;" vertex="1" parent="1">
          <mxGeometry x="130" y="810" width="140" height="60" as="geometry" />
        </mxCell>
        <mxCell id="2JCTQVkfjINHfoPqzNRB-92" style="edgeStyle=orthogonalEdgeStyle;rounded=0;orthogonalLoop=1;jettySize=auto;html=1;exitX=1;exitY=0.25;exitDx=0;exitDy=0;entryX=0;entryY=0.25;entryDx=0;entryDy=0;endArrow=none;endFill=0;" edge="1" parent="1" source="2JCTQVkfjINHfoPqzNRB-2" target="2JCTQVkfjINHfoPqzNRB-90">
          <mxGeometry relative="1" as="geometry" />
        </mxCell>
        <mxCell id="2JCTQVkfjINHfoPqzNRB-102" style="edgeStyle=orthogonalEdgeStyle;rounded=0;orthogonalLoop=1;jettySize=auto;html=1;exitX=0;exitY=0.75;exitDx=0;exitDy=0;entryX=1;entryY=0.75;entryDx=0;entryDy=0;endArrow=none;endFill=0;" edge="1" parent="1" source="2JCTQVkfjINHfoPqzNRB-2" target="2JCTQVkfjINHfoPqzNRB-1">
          <mxGeometry relative="1" as="geometry" />
        </mxCell>
        <mxCell id="2JCTQVkfjINHfoPqzNRB-103" style="edgeStyle=orthogonalEdgeStyle;rounded=0;orthogonalLoop=1;jettySize=auto;html=1;exitX=1;exitY=0.75;exitDx=0;exitDy=0;entryX=0;entryY=0.75;entryDx=0;entryDy=0;endArrow=none;endFill=0;" edge="1" parent="1" source="2JCTQVkfjINHfoPqzNRB-2" target="2JCTQVkfjINHfoPqzNRB-90">
          <mxGeometry relative="1" as="geometry" />
        </mxCell>
        <mxCell id="2JCTQVkfjINHfoPqzNRB-2" value="&lt;font style=&quot;font-size: 14px;&quot;&gt;:TaskController&lt;/font&gt;" style="rounded=0;whiteSpace=wrap;html=1;" vertex="1" parent="1">
          <mxGeometry x="525" y="810" width="140" height="60" as="geometry" />
        </mxCell>
        <mxCell id="2JCTQVkfjINHfoPqzNRB-12" value="" style="endArrow=open;html=1;rounded=0;strokeWidth=1;jumpSize=6;startSize=4;endSize=3;endFill=0;" edge="1" parent="1">
          <mxGeometry width="50" height="50" relative="1" as="geometry">
            <mxPoint x="389.76" y="820" as="sourcePoint" />
            <mxPoint x="420.24" y="820" as="targetPoint" />
          </mxGeometry>
        </mxCell>
        <mxCell id="2JCTQVkfjINHfoPqzNRB-17" value="1:getCookTasks()" style="text;html=1;strokeColor=none;fillColor=none;align=center;verticalAlign=middle;whiteSpace=wrap;rounded=0;" vertex="1" parent="1">
          <mxGeometry x="375" y="790" width="60" height="30" as="geometry" />
        </mxCell>
        <mxCell id="2JCTQVkfjINHfoPqzNRB-65" value="" style="endArrow=open;html=1;rounded=0;strokeWidth=1;jumpSize=6;startSize=4;endSize=3;endFill=0;" edge="1" parent="1">
          <mxGeometry width="50" height="50" relative="1" as="geometry">
            <mxPoint x="762.5" y="820" as="sourcePoint" />
            <mxPoint x="802.5" y="820" as="targetPoint" />
          </mxGeometry>
        </mxCell>
        <mxCell id="2JCTQVkfjINHfoPqzNRB-67" value="2:getActiveTasks()" style="text;html=1;strokeColor=none;fillColor=none;align=center;verticalAlign=middle;whiteSpace=wrap;rounded=0;" vertex="1" parent="1">
          <mxGeometry x="680" y="790" width="189.99" height="30" as="geometry" />
        </mxCell>
        <mxCell id="2JCTQVkfjINHfoPqzNRB-89" value="" style="endArrow=open;html=1;rounded=0;strokeWidth=1;jumpSize=6;startSize=4;endSize=3;endFill=0;" edge="1" parent="1">
          <mxGeometry width="50" height="50" relative="1" as="geometry">
            <mxPoint x="1150" y="819.9999999999999" as="sourcePoint" />
            <mxPoint x="1190" y="819.9999999999999" as="targetPoint" />
          </mxGeometry>
        </mxCell>
        <mxCell id="2JCTQVkfjINHfoPqzNRB-110" style="edgeStyle=orthogonalEdgeStyle;rounded=0;orthogonalLoop=1;jettySize=auto;html=1;exitX=1;exitY=0.25;exitDx=0;exitDy=0;entryX=0;entryY=0.25;entryDx=0;entryDy=0;endArrow=none;endFill=0;" edge="1" parent="1" source="2JCTQVkfjINHfoPqzNRB-90" target="2JCTQVkfjINHfoPqzNRB-108">
          <mxGeometry relative="1" as="geometry" />
        </mxCell>
        <mxCell id="2JCTQVkfjINHfoPqzNRB-90" value="&lt;font style=&quot;font-size: 14px;&quot;&gt;:TaskService&lt;/font&gt;" style="rounded=0;whiteSpace=wrap;html=1;" vertex="1" parent="1">
          <mxGeometry x="920" y="810" width="140" height="60" as="geometry" />
        </mxCell>
        <mxCell id="2JCTQVkfjINHfoPqzNRB-95" value="" style="endArrow=open;html=1;rounded=0;strokeWidth=1;jumpSize=6;startSize=4;endSize=3;endFill=0;" edge="1" parent="1">
          <mxGeometry width="50" height="50" relative="1" as="geometry">
            <mxPoint x="420" y="860" as="sourcePoint" />
            <mxPoint x="380" y="860" as="targetPoint" />
          </mxGeometry>
        </mxCell>
        <mxCell id="2JCTQVkfjINHfoPqzNRB-96" value="3:getActiveTasks()" style="text;html=1;strokeColor=none;fillColor=none;align=center;verticalAlign=middle;whiteSpace=wrap;rounded=0;" vertex="1" parent="1">
          <mxGeometry x="1080.01" y="790" width="189.99" height="30" as="geometry" />
        </mxCell>
        <mxCell id="2JCTQVkfjINHfoPqzNRB-97" value="6:TaskController.getActiveTasks() = Task[]" style="text;html=1;strokeColor=none;fillColor=none;align=center;verticalAlign=middle;whiteSpace=wrap;rounded=0;" vertex="1" parent="1">
          <mxGeometry x="680" y="870" width="235" height="30" as="geometry" />
        </mxCell>
        <mxCell id="2JCTQVkfjINHfoPqzNRB-99" value="&lt;span style=&quot;color: rgb(0, 0, 0); font-family: Helvetica; font-size: 12px; font-style: normal; font-variant-ligatures: normal; font-variant-caps: normal; font-weight: 400; letter-spacing: normal; orphans: 2; text-align: center; text-indent: 0px; text-transform: none; widows: 2; word-spacing: 0px; -webkit-text-stroke-width: 0px; background-color: rgb(251, 251, 251); text-decoration-thickness: initial; text-decoration-style: initial; text-decoration-color: initial; float: none; display: inline !important;&quot;&gt;7:CookController.getCookTasks() = Task[]&lt;/span&gt;" style="text;whiteSpace=wrap;html=1;" vertex="1" parent="1">
          <mxGeometry x="290" y="870" width="230" height="40" as="geometry" />
        </mxCell>
        <mxCell id="2JCTQVkfjINHfoPqzNRB-100" value="" style="endArrow=open;html=1;rounded=0;strokeWidth=1;jumpSize=6;startSize=4;endSize=3;endFill=0;" edge="1" parent="1">
          <mxGeometry width="50" height="50" relative="1" as="geometry">
            <mxPoint x="802.5" y="860" as="sourcePoint" />
            <mxPoint x="762.5" y="860" as="targetPoint" />
          </mxGeometry>
        </mxCell>
        <mxCell id="2JCTQVkfjINHfoPqzNRB-105" value="" style="endArrow=open;html=1;rounded=0;strokeWidth=1;jumpSize=6;startSize=4;endSize=3;endFill=0;" edge="1" parent="1">
          <mxGeometry width="50" height="50" relative="1" as="geometry">
            <mxPoint x="1190" y="860" as="sourcePoint" />
            <mxPoint x="1150" y="860" as="targetPoint" />
          </mxGeometry>
        </mxCell>
        <mxCell id="2JCTQVkfjINHfoPqzNRB-106" value="" style="endArrow=open;html=1;rounded=0;strokeWidth=1;jumpSize=6;startSize=4;endSize=3;endFill=0;" edge="1" parent="1">
          <mxGeometry width="50" height="50" relative="1" as="geometry">
            <mxPoint x="1450" y="819.9999999999999" as="sourcePoint" />
            <mxPoint x="1490" y="819.9999999999999" as="targetPoint" />
          </mxGeometry>
        </mxCell>
        <mxCell id="2JCTQVkfjINHfoPqzNRB-111" style="edgeStyle=orthogonalEdgeStyle;rounded=0;orthogonalLoop=1;jettySize=auto;html=1;exitX=0;exitY=0.75;exitDx=0;exitDy=0;entryX=1;entryY=0.75;entryDx=0;entryDy=0;endArrow=none;endFill=0;" edge="1" parent="1" source="2JCTQVkfjINHfoPqzNRB-108" target="2JCTQVkfjINHfoPqzNRB-90">
          <mxGeometry relative="1" as="geometry" />
        </mxCell>
        <mxCell id="2JCTQVkfjINHfoPqzNRB-108" value="&lt;font style=&quot;font-size: 14px;&quot;&gt;:PostgresTaskRepo&lt;/font&gt;" style="rounded=0;whiteSpace=wrap;html=1;" vertex="1" parent="1">
          <mxGeometry x="1270" y="810" width="140" height="60" as="geometry" />
        </mxCell>
        <mxCell id="2JCTQVkfjINHfoPqzNRB-112" value="5:TaskService,getActiveTasks() = Task[]" style="text;html=1;strokeColor=none;fillColor=none;align=center;verticalAlign=middle;whiteSpace=wrap;rounded=0;" vertex="1" parent="1">
          <mxGeometry x="1060" y="870" width="220" height="30" as="geometry" />
        </mxCell>
        <mxCell id="2JCTQVkfjINHfoPqzNRB-113" style="edgeStyle=orthogonalEdgeStyle;rounded=0;orthogonalLoop=1;jettySize=auto;html=1;exitX=1;exitY=0.25;exitDx=0;exitDy=0;entryX=1;entryY=0.667;entryDx=0;entryDy=0;entryPerimeter=0;endArrow=none;endFill=0;" edge="1" parent="1" source="2JCTQVkfjINHfoPqzNRB-108" target="2JCTQVkfjINHfoPqzNRB-108">
          <mxGeometry relative="1" as="geometry">
            <Array as="points">
              <mxPoint x="1510" y="825" />
              <mxPoint x="1510" y="850" />
            </Array>
          </mxGeometry>
        </mxCell>
        <mxCell id="2JCTQVkfjINHfoPqzNRB-114" value="4:getActiveTasks()" style="text;html=1;strokeColor=none;fillColor=none;align=center;verticalAlign=middle;whiteSpace=wrap;rounded=0;" vertex="1" parent="1">
          <mxGeometry x="1380" y="790" width="189.99" height="30" as="geometry" />
        </mxCell>
        <mxCell id="2JCTQVkfjINHfoPqzNRB-115" style="edgeStyle=orthogonalEdgeStyle;rounded=0;orthogonalLoop=1;jettySize=auto;html=1;exitX=1;exitY=0.25;exitDx=0;exitDy=0;entryX=0;entryY=0.25;entryDx=0;entryDy=0;endArrow=none;endFill=0;" edge="1" parent="1" source="2JCTQVkfjINHfoPqzNRB-116" target="2JCTQVkfjINHfoPqzNRB-120">
          <mxGeometry relative="1" as="geometry" />
        </mxCell>
        <mxCell id="2JCTQVkfjINHfoPqzNRB-116" value="&lt;font style=&quot;font-size: 14px;&quot;&gt;:MaidController&lt;/font&gt;" style="rounded=0;whiteSpace=wrap;html=1;" vertex="1" parent="1">
          <mxGeometry x="130" y="980" width="140" height="60" as="geometry" />
        </mxCell>
        <mxCell id="2JCTQVkfjINHfoPqzNRB-117" style="edgeStyle=orthogonalEdgeStyle;rounded=0;orthogonalLoop=1;jettySize=auto;html=1;exitX=1;exitY=0.25;exitDx=0;exitDy=0;entryX=0;entryY=0.25;entryDx=0;entryDy=0;endArrow=none;endFill=0;" edge="1" parent="1" source="2JCTQVkfjINHfoPqzNRB-120" target="2JCTQVkfjINHfoPqzNRB-127">
          <mxGeometry relative="1" as="geometry" />
        </mxCell>
        <mxCell id="2JCTQVkfjINHfoPqzNRB-118" style="edgeStyle=orthogonalEdgeStyle;rounded=0;orthogonalLoop=1;jettySize=auto;html=1;exitX=0;exitY=0.75;exitDx=0;exitDy=0;entryX=1;entryY=0.75;entryDx=0;entryDy=0;endArrow=none;endFill=0;" edge="1" parent="1" source="2JCTQVkfjINHfoPqzNRB-120" target="2JCTQVkfjINHfoPqzNRB-116">
          <mxGeometry relative="1" as="geometry" />
        </mxCell>
        <mxCell id="2JCTQVkfjINHfoPqzNRB-119" style="edgeStyle=orthogonalEdgeStyle;rounded=0;orthogonalLoop=1;jettySize=auto;html=1;exitX=1;exitY=0.75;exitDx=0;exitDy=0;entryX=0;entryY=0.75;entryDx=0;entryDy=0;endArrow=none;endFill=0;" edge="1" parent="1" source="2JCTQVkfjINHfoPqzNRB-120" target="2JCTQVkfjINHfoPqzNRB-127">
          <mxGeometry relative="1" as="geometry" />
        </mxCell>
        <mxCell id="2JCTQVkfjINHfoPqzNRB-120" value="&lt;font style=&quot;font-size: 14px;&quot;&gt;:TaskController&lt;/font&gt;" style="rounded=0;whiteSpace=wrap;html=1;" vertex="1" parent="1">
          <mxGeometry x="525" y="980" width="140" height="60" as="geometry" />
        </mxCell>
        <mxCell id="2JCTQVkfjINHfoPqzNRB-121" value="" style="endArrow=open;html=1;rounded=0;strokeWidth=1;jumpSize=6;startSize=4;endSize=3;endFill=0;" edge="1" parent="1">
          <mxGeometry width="50" height="50" relative="1" as="geometry">
            <mxPoint x="389.76" y="990" as="sourcePoint" />
            <mxPoint x="420.24" y="990" as="targetPoint" />
          </mxGeometry>
        </mxCell>
        <mxCell id="2JCTQVkfjINHfoPqzNRB-122" value="1:getCleaningPlan()" style="text;html=1;strokeColor=none;fillColor=none;align=center;verticalAlign=middle;whiteSpace=wrap;rounded=0;" vertex="1" parent="1">
          <mxGeometry x="375" y="960" width="60" height="30" as="geometry" />
        </mxCell>
        <mxCell id="2JCTQVkfjINHfoPqzNRB-123" value="" style="endArrow=open;html=1;rounded=0;strokeWidth=1;jumpSize=6;startSize=4;endSize=3;endFill=0;" edge="1" parent="1">
          <mxGeometry width="50" height="50" relative="1" as="geometry">
            <mxPoint x="762.5" y="990" as="sourcePoint" />
            <mxPoint x="802.5" y="990" as="targetPoint" />
          </mxGeometry>
        </mxCell>
        <mxCell id="2JCTQVkfjINHfoPqzNRB-124" value="2:getActiveTasks()" style="text;html=1;strokeColor=none;fillColor=none;align=center;verticalAlign=middle;whiteSpace=wrap;rounded=0;" vertex="1" parent="1">
          <mxGeometry x="680" y="960" width="189.99" height="30" as="geometry" />
        </mxCell>
        <mxCell id="2JCTQVkfjINHfoPqzNRB-125" value="" style="endArrow=open;html=1;rounded=0;strokeWidth=1;jumpSize=6;startSize=4;endSize=3;endFill=0;" edge="1" parent="1">
          <mxGeometry width="50" height="50" relative="1" as="geometry">
            <mxPoint x="1150" y="990" as="sourcePoint" />
            <mxPoint x="1190" y="990" as="targetPoint" />
          </mxGeometry>
        </mxCell>
        <mxCell id="2JCTQVkfjINHfoPqzNRB-126" style="edgeStyle=orthogonalEdgeStyle;rounded=0;orthogonalLoop=1;jettySize=auto;html=1;exitX=1;exitY=0.25;exitDx=0;exitDy=0;entryX=0;entryY=0.25;entryDx=0;entryDy=0;endArrow=none;endFill=0;" edge="1" parent="1" source="2JCTQVkfjINHfoPqzNRB-127" target="2JCTQVkfjINHfoPqzNRB-136">
          <mxGeometry relative="1" as="geometry" />
        </mxCell>
        <mxCell id="2JCTQVkfjINHfoPqzNRB-127" value="&lt;font style=&quot;font-size: 14px;&quot;&gt;:TaskService&lt;/font&gt;" style="rounded=0;whiteSpace=wrap;html=1;" vertex="1" parent="1">
          <mxGeometry x="920" y="980" width="140" height="60" as="geometry" />
        </mxCell>
        <mxCell id="2JCTQVkfjINHfoPqzNRB-128" value="" style="endArrow=open;html=1;rounded=0;strokeWidth=1;jumpSize=6;startSize=4;endSize=3;endFill=0;" edge="1" parent="1">
          <mxGeometry width="50" height="50" relative="1" as="geometry">
            <mxPoint x="420" y="1030" as="sourcePoint" />
            <mxPoint x="380" y="1030" as="targetPoint" />
          </mxGeometry>
        </mxCell>
        <mxCell id="2JCTQVkfjINHfoPqzNRB-129" value="3:getActiveTasks()" style="text;html=1;strokeColor=none;fillColor=none;align=center;verticalAlign=middle;whiteSpace=wrap;rounded=0;" vertex="1" parent="1">
          <mxGeometry x="1080.01" y="960" width="189.99" height="30" as="geometry" />
        </mxCell>
        <mxCell id="2JCTQVkfjINHfoPqzNRB-130" value="6:TaskController.getActiveTasks() = Task[]" style="text;html=1;strokeColor=none;fillColor=none;align=center;verticalAlign=middle;whiteSpace=wrap;rounded=0;" vertex="1" parent="1">
          <mxGeometry x="680" y="1040" width="235" height="30" as="geometry" />
        </mxCell>
        <mxCell id="2JCTQVkfjINHfoPqzNRB-131" value="&lt;span style=&quot;color: rgb(0, 0, 0); font-family: Helvetica; font-size: 12px; font-style: normal; font-variant-ligatures: normal; font-variant-caps: normal; font-weight: 400; letter-spacing: normal; orphans: 2; text-align: center; text-indent: 0px; text-transform: none; widows: 2; word-spacing: 0px; -webkit-text-stroke-width: 0px; background-color: rgb(251, 251, 251); text-decoration-thickness: initial; text-decoration-style: initial; text-decoration-color: initial; float: none; display: inline !important;&quot;&gt;7:MaidController.getCleaningPlan() = Task[]&lt;/span&gt;" style="text;whiteSpace=wrap;html=1;" vertex="1" parent="1">
          <mxGeometry x="275" y="1040" width="250" height="40" as="geometry" />
        </mxCell>
        <mxCell id="2JCTQVkfjINHfoPqzNRB-132" value="" style="endArrow=open;html=1;rounded=0;strokeWidth=1;jumpSize=6;startSize=4;endSize=3;endFill=0;" edge="1" parent="1">
          <mxGeometry width="50" height="50" relative="1" as="geometry">
            <mxPoint x="802.5" y="1030" as="sourcePoint" />
            <mxPoint x="762.5" y="1030" as="targetPoint" />
          </mxGeometry>
        </mxCell>
        <mxCell id="2JCTQVkfjINHfoPqzNRB-133" value="" style="endArrow=open;html=1;rounded=0;strokeWidth=1;jumpSize=6;startSize=4;endSize=3;endFill=0;" edge="1" parent="1">
          <mxGeometry width="50" height="50" relative="1" as="geometry">
            <mxPoint x="1190" y="1030" as="sourcePoint" />
            <mxPoint x="1150" y="1030" as="targetPoint" />
          </mxGeometry>
        </mxCell>
        <mxCell id="2JCTQVkfjINHfoPqzNRB-134" value="" style="endArrow=open;html=1;rounded=0;strokeWidth=1;jumpSize=6;startSize=4;endSize=3;endFill=0;" edge="1" parent="1">
          <mxGeometry width="50" height="50" relative="1" as="geometry">
            <mxPoint x="1450" y="990" as="sourcePoint" />
            <mxPoint x="1490" y="990" as="targetPoint" />
          </mxGeometry>
        </mxCell>
        <mxCell id="2JCTQVkfjINHfoPqzNRB-135" style="edgeStyle=orthogonalEdgeStyle;rounded=0;orthogonalLoop=1;jettySize=auto;html=1;exitX=0;exitY=0.75;exitDx=0;exitDy=0;entryX=1;entryY=0.75;entryDx=0;entryDy=0;endArrow=none;endFill=0;" edge="1" parent="1" source="2JCTQVkfjINHfoPqzNRB-136" target="2JCTQVkfjINHfoPqzNRB-127">
          <mxGeometry relative="1" as="geometry" />
        </mxCell>
        <mxCell id="2JCTQVkfjINHfoPqzNRB-136" value="&lt;font style=&quot;font-size: 14px;&quot;&gt;:PostgresTaskRepo&lt;/font&gt;" style="rounded=0;whiteSpace=wrap;html=1;" vertex="1" parent="1">
          <mxGeometry x="1270" y="980" width="140" height="60" as="geometry" />
        </mxCell>
        <mxCell id="2JCTQVkfjINHfoPqzNRB-137" value="5:TaskService,getActiveTasks() = Task[]" style="text;html=1;strokeColor=none;fillColor=none;align=center;verticalAlign=middle;whiteSpace=wrap;rounded=0;" vertex="1" parent="1">
          <mxGeometry x="1060" y="1040" width="220" height="30" as="geometry" />
        </mxCell>
        <mxCell id="2JCTQVkfjINHfoPqzNRB-138" style="edgeStyle=orthogonalEdgeStyle;rounded=0;orthogonalLoop=1;jettySize=auto;html=1;exitX=1;exitY=0.25;exitDx=0;exitDy=0;entryX=1;entryY=0.667;entryDx=0;entryDy=0;entryPerimeter=0;endArrow=none;endFill=0;" edge="1" parent="1" source="2JCTQVkfjINHfoPqzNRB-136" target="2JCTQVkfjINHfoPqzNRB-136">
          <mxGeometry relative="1" as="geometry">
            <Array as="points">
              <mxPoint x="1510" y="995" />
              <mxPoint x="1510" y="1020" />
            </Array>
          </mxGeometry>
        </mxCell>
        <mxCell id="2JCTQVkfjINHfoPqzNRB-140" value="4:getActiveTasks()" style="text;html=1;strokeColor=none;fillColor=none;align=center;verticalAlign=middle;whiteSpace=wrap;rounded=0;" vertex="1" parent="1">
          <mxGeometry x="1380" y="960" width="189.99" height="30" as="geometry" />
        </mxCell>
        <mxCell id="2JCTQVkfjINHfoPqzNRB-143" value="Повара" style="text;html=1;strokeColor=none;fillColor=none;align=center;verticalAlign=middle;whiteSpace=wrap;rounded=0;" vertex="1" parent="1">
          <mxGeometry x="130" y="770" width="60" height="30" as="geometry" />
        </mxCell>
        <mxCell id="2JCTQVkfjINHfoPqzNRB-144" value="Горничные" style="text;html=1;strokeColor=none;fillColor=none;align=center;verticalAlign=middle;whiteSpace=wrap;rounded=0;" vertex="1" parent="1">
          <mxGeometry x="130" y="940" width="60" height="30" as="geometry" />
        </mxCell>
      </root>
    </mxGraphModel>
  </diagram>
</mxfile>
